<svg width="187" height="32" fill="none" xmlns="http://www.w3.org/2000/svg"><path d="M4.743.367H4.65a5.013 5.013 0 0 0-1.767.306 4.675 4.675 0 0 0-1.504.898C.506 2.35.01 3.414 0 4.527-.01 5.64.465 6.71 1.323 7.504 2.18 8.298 3.348 8.75 4.57 8.76h.093c1.206-.003 2.364-.436 3.224-1.206.86-.77 1.355-1.816 1.378-2.913.02-1.112-.444-2.186-1.292-2.987C7.127.853 5.964.39 4.744.367ZM20.336 27.788l7.824-14.831 9.868 17.356c.308.543.785.992 1.372 1.29a3.71 3.71 0 0 0 1.926.388 3.634 3.634 0 0 0 1.842-.641 3.147 3.147 0 0 0 1.15-1.46L53.687 5a2.861 2.861 0 0 0-.164-2.384 3.17 3.17 0 0 0-.811-.968 3.522 3.522 0 0 0-1.157-.612 3.745 3.745 0 0 0-2.62.149c-.404.18-.765.43-1.063.738a3.067 3.067 0 0 0-.673 1.052l-6.769 17.981-9.34-16.426a3.247 3.247 0 0 0-1.261-1.234 3.674 3.674 0 0 0-1.783-.454h-.049a3.66 3.66 0 0 0-1.8.489 3.219 3.219 0 0 0-1.243 1.282l-8.121 15.393 3.318 7.292c.072.16.134.323.184.49ZM12.81 30.108c.06.129.13.254.208.374l.041.058c.07.102.147.2.23.293l.061.07c.095.101.198.197.306.286l.07.054c.092.072.19.139.292.203l.037.024.055.034c.123.072.25.136.38.193l.028.009.069.027c.119.047.227.084.334.116l.105.028h.027c.109.026.219.048.327.065l.048.008.078.013c.29.038.584.038.873 0l.109-.016c.116-.016.23-.038.344-.066l.08-.018a3.4 3.4 0 0 0 .395-.129l.045-.02.055-.024c.101-.042.2-.089.29-.137l.107-.06c.114-.066.224-.137.329-.214l.025-.02c.105-.08.204-.167.298-.259l.077-.08a2.94 2.94 0 0 0 .233-.27l.032-.04c.083-.113.158-.23.224-.352a2.874 2.874 0 0 0 .102-2.583l-3.414-7.502-3.287-7.218a3.104 3.104 0 0 0-.733-1.038 3.46 3.46 0 0 0-1.117-.699 3.729 3.729 0 0 0-2.658-.013 3.47 3.47 0 0 0-1.125.688 3.113 3.113 0 0 0-.745 1.031 2.875 2.875 0 0 0 .04 2.418l6.696 14.716.027.053M184.658 31.349a2.342 2.342 0 0 1-2.342-2.342v-1.556c0-.323-.047-.645-.139-.954a3.351 3.351 0 0 1-.139-.955v-7.187c0-1.49-.436-2.64-1.309-3.452-.874-.839-2.197-1.259-3.969-1.259-1.191 0-2.369.19-3.533.569-.264.088-.519.184-.764.288-1.183.5-2.702.215-3.3-.922-.451-.856-.233-1.93.614-2.398.804-.445 1.69-.801 2.656-1.07a17.59 17.59 0 0 1 4.922-.69c3.069 0 5.437.758 7.104 2.274 1.694 1.49 2.54 3.804 2.54 6.944v10.368a2.341 2.341 0 0 1-2.341 2.342Zm-9.01.284c-1.587 0-2.976-.27-4.167-.812-1.191-.568-2.117-1.34-2.778-2.314-.635-1.002-.953-2.126-.953-3.37 0-1.22.278-2.315.833-3.29.583-.975 1.522-1.746 2.818-2.315 1.297-.568 3.017-.852 5.16-.852h4.467a1.685 1.685 0 1 1 0 3.37h-4.11c-1.693 0-2.831.284-3.413.853-.582.541-.873 1.218-.873 2.03 0 .92.357 1.651 1.071 2.193.715.541 1.707.812 2.977.812 1.217 0 2.302-.284 3.255-.853.143-.083.281-.172.412-.267.732-.528 2.207-.366 2.445.504a.86.86 0 0 1-.033.57c-.494 1.14-1.316 2.034-2.467 2.686-1.217.703-2.765 1.055-4.644 1.055ZM160.268 31.349a2.48 2.48 0 0 1-2.481-2.48V12.144a2.48 2.48 0 0 1 4.961 0v16.723a2.48 2.48 0 0 1-2.48 2.48Zm.019-25.258c-.926 0-1.693-.298-2.302-.893a2.968 2.968 0 0 1-.873-2.152c0-.867.291-1.584.873-2.153.609-.595 1.376-.893 2.302-.893.927 0 1.681.284 2.263.853.608.541.913 1.231.913 2.07 0 .894-.291 1.652-.874 2.275-.582.595-1.349.893-2.302.893ZM139.508 31.633c-2.037 0-3.876-.46-5.517-1.38a10.25 10.25 0 0 1-3.81-3.898c-.926-1.652-1.389-3.601-1.389-5.848s.463-4.196 1.389-5.847c.926-1.652 2.196-2.938 3.81-3.858 1.641-.92 3.48-1.38 5.517-1.38 1.773 0 3.361.405 4.763 1.217 1.402.786 2.514 1.99 3.334 3.615.82 1.624 1.23 3.708 1.23 6.253 0 2.518-.397 4.602-1.19 6.254-.794 1.624-1.892 2.842-3.295 3.654-1.402.812-3.016 1.218-4.842 1.218Zm.596-4.345c1.19 0 2.249-.27 3.175-.812.952-.541 1.706-1.326 2.262-2.355.582-1.029.873-2.233.873-3.614 0-1.408-.291-2.612-.873-3.614-.556-1.029-1.31-1.814-2.262-2.355-.926-.542-1.985-.812-3.175-.812-1.191 0-2.263.27-3.215.812-.926.541-1.681 1.326-2.263 2.355-.555 1.002-.833 2.206-.833 3.614 0 1.38.278 2.585.833 3.614.582 1.029 1.337 1.814 2.263 2.355.952.542 2.024.813 3.215.813Zm8.791 4.061a2.362 2.362 0 0 1-2.362-2.361v-2.755l.199-5.767-.397-5.766V3.68a2.461 2.461 0 0 1 4.921 0v25.308a2.361 2.361 0 0 1-2.361 2.361ZM115.811 31.633c-2.354 0-4.418-.473-6.191-1.42-1.746-.976-3.109-2.302-4.088-3.98-.953-1.679-1.429-3.587-1.429-5.726 0-2.166.463-4.074 1.389-5.726.953-1.678 2.249-2.991 3.89-3.939 1.667-.947 3.559-1.42 5.675-1.42 2.064 0 3.903.46 5.517 1.38 1.614.92 2.884 2.22 3.81 3.898.927 1.679 1.39 3.655 1.39 5.929 0 .216-.014.46-.04.73 0 .44-.373.772-.813.772h-15.203a1.686 1.686 0 0 1-.001-3.37h11.818c.406 0 .543.541.187.734-.264.144-.587-.052-.606-.351-.062-.971-.308-1.844-.74-2.616a5.833 5.833 0 0 0-2.183-2.234c-.9-.541-1.945-.812-3.136-.812-1.217 0-2.288.27-3.214.812-.9.541-1.615 1.3-2.144 2.274-.502.948-.754 2.071-.754 3.37v.813c0 1.299.291 2.45.873 3.451a5.877 5.877 0 0 0 2.461 2.315c1.058.541 2.276.812 3.652.812 1.19 0 2.262-.19 3.214-.569a6.48 6.48 0 0 0 .705-.33c1.097-.597 2.551-.614 3.361.337.655.77.673 1.923-.112 2.56a9.908 9.908 0 0 1-2.366 1.413c-1.429.596-3.069.893-4.922.893ZM90.78 9.421c1.693 0 3.188.339 4.484 1.015 1.323.677 2.355 1.72 3.096 3.127.74 1.38 1.111 3.167 1.111 5.36v9.945a2.48 2.48 0 1 1-4.961 0v-9.295c0-1.922-.41-3.357-1.23-4.304-.82-.948-1.998-1.422-3.533-1.422-1.085 0-2.05.244-2.897.731-.82.488-1.469 1.205-1.945 2.152-.45.948-.675 2.153-.675 3.614v8.524a2.48 2.48 0 0 1-4.96 0v-9.295c0-1.922-.411-3.357-1.231-4.304-.82-.948-1.998-1.422-3.533-1.422-1.085 0-2.05.244-2.897.731-.82.488-1.468 1.205-1.945 2.152-.45.948-.674 2.153-.674 3.614v8.524a2.48 2.48 0 1 1-4.962 0V12.026a2.362 2.362 0 0 1 2.362-2.361h1.278c.598 0 1.083.485 1.083 1.083v2.98c0 .418-.564.549-.747.174a.384.384 0 0 1 .005-.35c.71-1.323 1.711-2.334 3.005-3.034 1.376-.731 2.937-1.097 4.683-1.097 1.985 0 3.704.501 5.16 1.503 1.16.784 2.012 1.884 2.556 3.299.202.526-.319 1-.85.811-.388-.137-.582-.574-.388-.936.7-1.31 1.729-2.381 3.087-3.215 1.588-.975 3.427-1.462 5.517-1.462Z" fill="#fff"/></svg>