<svg width="38" height="38" viewBox="0 0 38 38" fill="none" xmlns="http://www.w3.org/2000/svg">
<path d="M19 38C29.4934 38 38 29.4934 38 19C38 8.50659 29.4934 0 19 0C8.50659 0 0 8.50659 0 19C0 29.4934 8.50659 38 19 38Z" fill="white"/>
<path d="M24.9935 8.88928H13.0118C10.4989 8.88928 8.46191 10.9263 8.46191 13.4391V25.4209C8.46191 27.9337 10.4989 29.9707 13.0118 29.9707H24.9935C27.5063 29.9707 29.5433 27.9337 29.5433 25.4209V13.4391C29.5433 10.9263 27.5063 8.88928 24.9935 8.88928Z" fill="#015B3F"/>
<path d="M25.3636 11.4117C24.5558 11.4117 23.9043 12.0684 23.9043 12.871C23.9043 13.6736 24.5558 14.3303 25.3636 14.3303C26.1714 14.3303 26.8229 13.6788 26.8229 12.871C26.8229 12.0632 26.1714 11.4117 25.3636 11.4117Z" fill="white"/>
<path d="M18.9999 14.3042C16.1647 14.3042 13.8716 16.6026 13.8716 19.4325C13.8716 22.2625 16.1647 24.5609 18.9999 24.5609C21.8351 24.5609 24.1283 22.2677 24.1283 19.4325C24.1283 16.5974 21.8351 14.3042 18.9999 14.3042Z" fill="white"/>
<path d="M14.2107 9.68661C11.4798 9.68661 9.25961 11.9068 9.25961 14.6377V24.2221C9.25961 26.9531 11.4798 29.1733 14.2107 29.1733H23.7951C26.5261 29.1733 28.7463 26.9531 28.7463 24.2221V14.6377C28.7463 11.9068 26.5261 9.68661 23.7951 9.68661H14.2107ZM23.7951 31.4299H14.2107C10.2342 31.4299 7.00293 28.1934 7.00293 24.2221V14.6377C7.00293 10.6612 10.2394 7.42993 14.2107 7.42993H23.7951C27.7717 7.42993 31.0029 10.6664 31.0029 14.6377V24.2221C31.0029 28.1987 27.7664 31.4299 23.7951 31.4299Z" fill="#015B3F"/>
</svg>
