<svg width="38" height="38" viewBox="0 0 38 38" fill="none" xmlns="http://www.w3.org/2000/svg">
<path d="M19 38C29.4934 38 38 29.4934 38 19C38 8.50659 29.4934 0 19 0C8.50659 0 0 8.50659 0 19C0 29.4934 8.50659 38 19 38Z" fill="white"/>
<mask id="mask0_556_20" style="mask-type:luminance" maskUnits="userSpaceOnUse" x="0" y="0" width="38" height="38">
<path d="M19 38C29.4934 38 38 29.4934 38 19C38 8.50659 29.4934 0 19 0C8.50659 0 0 8.50659 0 19C0 29.4934 8.50659 38 19 38Z" fill="white"/>
</mask>
<g mask="url(#mask0_556_20)">
<path d="M25.9137 25.6827L26.7608 20.3477H21.4685V16.8865C21.4685 15.4276 22.2087 14.0029 24.5789 14.0029H26.9876V9.45935C26.9876 9.45935 24.8013 9.09998 22.7135 9.09998C18.3539 9.09998 15.5046 11.6541 15.5046 16.2833V20.3519H10.6572V25.687H15.5046V38.5861C16.4757 38.7316 17.4726 38.8086 18.4865 38.8086C19.5005 38.8086 20.4974 38.7316 21.4685 38.5861V25.687H25.918L25.9137 25.6827Z" fill="#015B3F"/>
</g>
</svg>
