<svg width="38" height="38" viewBox="0 0 38 38" fill="none" xmlns="http://www.w3.org/2000/svg">
<path d="M19 38C29.4934 38 38 29.4934 38 19C38 8.50659 29.4934 0 19 0C8.50659 0 0 8.50659 0 19C0 29.4934 8.50659 38 19 38Z" fill="white"/>
<path d="M29.0365 9.98562C30.2258 10.6873 25.2544 30.5087 24.8651 30.7697C24.4416 31.0563 17.7845 26.0678 17.4508 26.0464C17.2026 26.0293 16.2486 29.2166 16.0603 29.037C15.701 28.6904 14.6314 24.2837 14.6955 23.5051C14.7597 22.7264 24.5228 14.7688 25.0662 13.9559C25.4726 13.3527 12.3639 21.7638 11.4911 21.8323C10.6183 21.9007 4.70996 20.3563 4.70996 19.4792C4.70996 18.6021 28.1038 9.43799 29.0365 9.98562Z" fill="#015B3F"/>
</svg>
