<svg width="187" height="32" viewBox="0 0 187 32" fill="none" xmlns="http://www.w3.org/2000/svg">
<path d="M4.74306 0.367281H4.65016C4.04471 0.362552 3.44417 0.466394 2.88282 0.672877C2.32147 0.87936 1.8103 1.18444 1.37851 1.5707C0.506468 2.35079 0.0106639 3.41418 0.000170012 4.52694C-0.0103238 5.6397 0.465352 6.71067 1.32255 7.50427C2.17976 8.29786 3.34827 8.74906 4.57103 8.75861H4.66392C5.87046 8.75594 7.02785 8.32328 7.88805 7.55334C8.74824 6.7834 9.24281 5.73746 9.26575 4.63966C9.28649 3.52785 8.82212 2.4539 7.97439 1.65309C7.12666 0.852276 5.96469 0.389907 4.74306 0.367281Z" fill="white"/>
<path d="M20.336 27.7879L28.16 12.9567L38.0277 30.313C38.3362 30.856 38.8133 31.3046 39.3997 31.603C39.986 31.9015 40.6558 32.0365 41.3258 31.9915C41.9958 31.9465 42.6365 31.7233 43.1683 31.3498C43.7001 30.9762 44.0996 30.4687 44.3171 29.8903L53.6876 4.9995C53.8337 4.61188 53.8944 4.20187 53.8664 3.7929C53.8383 3.38392 53.722 2.98399 53.524 2.61592C53.3261 2.24785 53.0505 1.91886 52.7128 1.64774C52.3752 1.37661 51.9821 1.16866 51.5562 1.03575C51.1302 0.902847 50.6797 0.847589 50.2302 0.873135C49.7808 0.898681 49.3413 1.00453 48.9368 1.18464C48.5324 1.36475 48.1708 1.61559 47.8729 1.92284C47.5749 2.23009 47.3464 2.58774 47.2004 2.97536L40.431 20.9562L31.0914 4.52986C30.8038 4.02074 30.3673 3.59376 29.83 3.29599C29.2927 2.99822 28.6755 2.84122 28.0465 2.84229H27.9983C27.3598 2.84865 26.736 3.01796 26.198 3.33097C25.66 3.64397 25.2294 4.0881 24.9551 4.61283L16.8335 20.006L20.152 27.2979C20.2243 27.4576 20.2858 27.6213 20.336 27.7879Z" fill="white"/>
<path d="M12.8099 30.1077C12.8699 30.2366 12.9394 30.3616 13.0181 30.4818L13.0593 30.5398C13.129 30.6418 13.206 30.7396 13.2899 30.8325L13.3501 30.903C13.4455 31.0041 13.5478 31.0998 13.6563 31.1894L13.7251 31.2427C13.818 31.3147 13.9161 31.382 14.0176 31.4462L14.0554 31.4696L14.1104 31.5041C14.2326 31.5755 14.3596 31.6398 14.4906 31.6966L14.5182 31.706L14.587 31.7326C14.7057 31.7796 14.8141 31.8172 14.9207 31.8485L15.0257 31.8767H15.0532C15.1616 31.9033 15.2717 31.9252 15.38 31.9424L15.4282 31.9502L15.5056 31.9628C15.7954 32.0011 16.0898 32.0011 16.3795 31.9628L16.4879 31.9471C16.6038 31.9306 16.7186 31.9086 16.832 31.8814L16.9128 31.8626C17.0471 31.8277 17.1787 31.7848 17.3068 31.7342L17.3515 31.7139L17.4066 31.6904C17.5081 31.6481 17.6061 31.6011 17.6973 31.5526L17.804 31.4931C17.9178 31.4273 18.0275 31.3557 18.1325 31.2787L18.1583 31.2599C18.2629 31.1784 18.3622 31.0917 18.4559 31C18.4835 30.9734 18.5076 30.9468 18.5334 30.9202C18.6166 30.8347 18.6941 30.7448 18.7656 30.6509L18.7983 30.6102C18.881 30.4973 18.9557 30.3796 19.0219 30.258C19.2406 29.859 19.3628 29.422 19.3803 28.9765C19.3978 28.5309 19.3102 28.0871 19.1234 27.675L15.7103 20.1733L12.4228 12.955C12.2569 12.5681 12.0079 12.2152 11.6902 11.917C11.3726 11.6188 10.9927 11.3813 10.573 11.2183C10.1532 11.0554 9.70186 10.9703 9.24549 10.9681C8.78911 10.9659 8.33684 11.0466 7.91516 11.2054C7.49348 11.3643 7.11087 11.5981 6.78974 11.8932C6.46861 12.1883 6.21543 12.5387 6.04501 12.924C5.87459 13.3092 5.79036 13.7216 5.79727 14.1368C5.80417 14.5521 5.90207 14.9619 6.08522 15.3423L12.7807 30.0576L12.8082 30.1108" fill="white"/>
<path d="M184.658 31.349C183.365 31.349 182.316 30.3006 182.316 29.0074V27.4507C182.316 27.1276 182.269 26.8062 182.177 26.4965C182.085 26.1868 182.038 25.8654 182.038 25.5423V18.3548C182.038 16.8658 181.602 15.7153 180.729 14.9032C179.855 14.064 178.532 13.6443 176.76 13.6443C175.569 13.6443 174.391 13.8338 173.227 14.2128C172.963 14.3008 172.708 14.3968 172.463 14.5008C171.28 15.0017 169.761 14.7159 169.163 13.5793C168.712 12.7231 168.93 11.6491 169.777 11.181C170.581 10.7362 171.467 10.3798 172.433 10.1115C174.021 9.65131 175.661 9.4212 177.355 9.4212C180.424 9.4212 182.792 10.1792 184.459 11.6952C186.153 13.1841 186.999 15.4987 186.999 18.639V29.0074C186.999 30.3006 185.951 31.349 184.658 31.349ZM175.648 31.6333C174.061 31.6333 172.672 31.3626 171.481 30.8212C170.29 30.2527 169.364 29.4811 168.703 28.5066C168.068 27.5049 167.75 26.3814 167.75 25.1362C167.75 23.9179 168.028 22.8216 168.583 21.847C169.166 20.8724 170.105 20.1009 171.401 19.5324C172.698 18.9639 174.418 18.6796 176.561 18.6796H181.028C181.959 18.6796 182.713 19.4341 182.713 20.3648C182.713 21.2955 181.959 22.05 181.028 22.05H176.918C175.225 22.05 174.087 22.3343 173.505 22.9028C172.923 23.4442 172.632 24.121 172.632 24.9331C172.632 25.8536 172.989 26.5845 173.703 27.1259C174.418 27.6673 175.41 27.9381 176.68 27.9381C177.897 27.9381 178.982 27.6538 179.935 27.0853C180.078 27.0019 180.216 26.9128 180.347 26.8178C181.079 26.2897 182.554 26.452 182.792 27.3223C182.844 27.5114 182.837 27.713 182.759 27.8929C182.265 29.0312 181.443 29.9261 180.292 30.5775C179.075 31.2814 177.527 31.6333 175.648 31.6333Z" fill="white"/>
<path d="M160.268 31.3487C158.898 31.3487 157.787 30.2381 157.787 28.8681V12.1451C157.787 10.7751 158.898 9.66449 160.268 9.66449C161.638 9.66449 162.748 10.7751 162.748 12.1451V28.8681C162.748 30.2381 161.638 31.3487 160.268 31.3487ZM160.287 6.09107C159.361 6.09107 158.594 5.79328 157.985 5.19771C157.403 4.60214 157.112 3.88475 157.112 3.04553C157.112 2.17925 157.403 1.46185 157.985 0.893354C158.594 0.297784 159.361 0 160.287 0C161.214 0 161.968 0.284249 162.55 0.852748C163.158 1.39418 163.463 2.0845 163.463 2.92371C163.463 3.81707 163.172 4.57507 162.589 5.19771C162.007 5.79328 161.24 6.09107 160.287 6.09107Z" fill="white"/>
<path d="M139.508 31.6334C137.471 31.6334 135.632 31.1732 133.991 30.2528C132.377 29.3053 131.107 28.0059 130.181 26.3545C129.255 24.7031 128.792 22.754 128.792 20.5071C128.792 18.2601 129.255 16.311 130.181 14.6596C131.107 13.0083 132.377 11.7224 133.991 10.802C135.632 9.88154 137.471 9.42133 139.508 9.42133C141.281 9.42133 142.869 9.8274 144.271 10.6395C145.673 11.4246 146.785 12.6293 147.605 14.2536C148.425 15.8779 148.835 17.9624 148.835 20.5071C148.835 23.0247 148.438 25.1092 147.645 26.7606C146.851 28.3849 145.753 29.6031 144.35 30.4152C142.948 31.2274 141.334 31.6334 139.508 31.6334ZM140.104 27.2885C141.294 27.2885 142.353 27.0178 143.279 26.4763C144.231 25.9349 144.985 25.1498 145.541 24.1211C146.123 23.0924 146.414 21.8877 146.414 20.5071C146.414 19.0994 146.123 17.8947 145.541 16.893C144.985 15.8643 144.231 15.0793 143.279 14.5378C142.353 13.9964 141.294 13.7257 140.104 13.7257C138.913 13.7257 137.841 13.9964 136.889 14.5378C135.963 15.0793 135.208 15.8643 134.626 16.893C134.071 17.8947 133.793 19.0994 133.793 20.5071C133.793 21.8877 134.071 23.0924 134.626 24.1211C135.208 25.1498 135.963 25.9349 136.889 26.4763C137.841 27.0178 138.913 27.2885 140.104 27.2885ZM148.895 31.3492C147.591 31.3492 146.533 30.2919 146.533 28.9876V26.2327L146.732 20.4665L146.335 14.7003V3.67945C146.335 2.32041 147.437 1.21869 148.796 1.21869C150.155 1.21869 151.256 2.32041 151.256 3.67945V28.9876C151.256 30.2919 150.199 31.3492 148.895 31.3492Z" fill="white"/>
<path d="M115.811 31.6333C113.457 31.6333 111.393 31.1595 109.62 30.2121C107.874 29.2375 106.511 27.911 105.532 26.2326C104.579 24.5541 104.103 22.6456 104.103 20.5069C104.103 18.3412 104.566 16.4327 105.492 14.7813C106.445 13.1029 107.741 11.79 109.382 10.8425C111.049 9.89495 112.941 9.4212 115.057 9.4212C117.121 9.4212 118.96 9.88142 120.574 10.8018C122.188 11.7223 123.458 13.0217 124.384 14.7001C125.311 16.3786 125.774 18.3548 125.774 20.6288C125.774 20.8453 125.76 21.089 125.734 21.3597C125.734 21.7994 125.361 22.1312 124.921 22.1312H109.718C108.787 22.1312 108.032 21.3767 108.032 20.446C108.032 19.5153 108.787 18.7608 109.717 18.7608H121.535C121.941 18.7608 122.078 19.302 121.722 19.4954C121.458 19.6386 121.135 19.4431 121.116 19.1436C121.054 18.1725 120.808 17.3004 120.376 16.5275C119.847 15.58 119.119 14.8355 118.193 14.2941C117.293 13.7526 116.248 13.4819 115.057 13.4819C113.84 13.4819 112.769 13.7526 111.843 14.2941C110.943 14.8355 110.228 15.5935 109.699 16.5681C109.197 17.5156 108.945 18.639 108.945 19.9384V20.7506C108.945 22.05 109.236 23.2006 109.818 24.2022C110.4 25.2038 111.221 25.9754 112.279 26.5168C113.337 27.0582 114.555 27.3289 115.931 27.3289C117.121 27.3289 118.193 27.1394 119.145 26.7604C119.387 26.6643 119.622 26.5542 119.85 26.4302C120.947 25.8333 122.401 25.8155 123.211 26.767C123.866 27.5372 123.884 28.6896 123.099 29.3267C122.403 29.892 121.614 30.3631 120.733 30.7399C119.304 31.3355 117.664 31.6333 115.811 31.6333Z" fill="white"/>
<path d="M90.7791 9.42114C92.4726 9.42114 93.9675 9.75954 95.2641 10.4363C96.5871 11.1131 97.619 12.1554 98.3599 13.5631C99.1007 14.9437 99.4712 16.7304 99.4712 18.9232V28.8684C99.4712 30.2384 98.3606 31.349 96.9906 31.349C95.6206 31.349 94.51 30.2384 94.51 28.8684V19.5729C94.51 17.6509 94.0998 16.2161 93.2796 15.2686C92.4593 14.3211 91.2819 13.8473 89.7472 13.8473C88.6624 13.8473 87.6966 14.091 86.8499 14.5782C86.0296 15.0655 85.3814 15.7829 84.9051 16.7304C84.4553 17.6779 84.2304 18.8826 84.2304 20.3445V28.8684C84.2304 30.2384 83.1197 31.349 81.7498 31.349C80.3798 31.349 79.2691 30.2384 79.2691 28.8684V19.5729C79.2691 17.6509 78.859 16.2161 78.0388 15.2686C77.2185 14.3211 76.0411 13.8473 74.5064 13.8473C73.4215 13.8473 72.4558 14.091 71.609 14.5782C70.7888 15.0655 70.1405 15.7829 69.6643 16.7304C69.2144 17.6779 68.9895 18.8826 68.9895 20.3445V28.8684C68.9895 30.2384 67.8789 31.349 66.5089 31.349C65.1389 31.349 64.0283 30.2384 64.0283 28.8684V12.0263C64.0283 10.7221 65.0856 9.66478 66.3899 9.66478H67.6683C68.2665 9.66478 68.7514 10.1497 68.7514 10.7479V13.7288C68.7514 14.1462 68.1873 14.2766 68.004 13.9017C67.9498 13.7907 67.9503 13.6604 68.0087 13.5516C68.7187 12.2294 69.7204 11.2181 71.0137 10.5175C72.3896 9.78661 73.9507 9.42114 75.6971 9.42114C77.6816 9.42114 79.4014 9.92196 80.8567 10.9236C82.017 11.7079 82.869 12.8076 83.4128 14.2227C83.6152 14.7495 83.0942 15.2233 82.5624 15.0345C82.1754 14.8972 81.9815 14.4604 82.175 14.0983C82.8747 12.7887 83.9038 11.7169 85.2623 10.883C86.8499 9.90843 88.6888 9.42114 90.7791 9.42114Z" fill="white"/>
</svg>
