<svg width="38" height="38" fill="none" xmlns="http://www.w3.org/2000/svg"><path d="M19 38c10.493 0 19-8.507 19-19S29.493 0 19 0 0 8.507 0 19s8.507 19 19 19Z" fill="#fff"/><path d="M24.994 8.89H13.012a4.55 4.55 0 0 0-4.55 4.55v11.98a4.55 4.55 0 0 0 4.55 4.55h11.982a4.55 4.55 0 0 0 4.55-4.55V13.44a4.55 4.55 0 0 0-4.55-4.55Z" fill="#015B3F"/><path d="M25.364 11.412a1.46 1.46 0 1 0 .002 2.92 1.46 1.46 0 0 0-.002-2.92ZM19 14.304a5.128 5.128 0 1 0 0 10.257 5.125 5.125 0 0 0 5.128-5.128A5.125 5.125 0 0 0 19 14.304Z" fill="#fff"/><path d="M14.21 9.687a4.956 4.956 0 0 0-4.95 4.95v9.585a4.956 4.956 0 0 0 4.95 4.951h9.585a4.956 4.956 0 0 0 4.951-4.95v-9.585c0-2.731-2.22-4.951-4.95-4.951H14.21Zm9.585 21.743h-9.584c-3.977 0-7.208-3.237-7.208-7.208v-9.584c0-3.977 3.236-7.208 7.208-7.208h9.584c3.977 0 7.208 3.236 7.208 7.208v9.584c0 3.977-3.237 7.208-7.208 7.208Z" fill="#015B3F"/></svg>