<svg width="38" height="38" fill="none" xmlns="http://www.w3.org/2000/svg"><path d="M19 38c10.493 0 19-8.507 19-19S29.493 0 19 0 0 8.507 0 19s8.507 19 19 19z" fill="#fff"/><mask id="a" style="mask-type:luminance" maskUnits="userSpaceOnUse" x="0" y="0" width="38" height="38"><path d="M19 38c10.493 0 19-8.507 19-19S29.493 0 19 0 0 8.507 0 19s8.507 19 19 19z" fill="#fff"/></mask><g mask="url(#a)"><path d="M25.914 25.683l.847-5.335h-5.293v-3.461c0-1.46.74-2.884 3.11-2.884h2.41V9.459S24.8 9.1 22.714 9.1c-4.36 0-7.21 2.554-7.21 7.183v4.069h-4.847v5.335h4.848v12.9a20.126 20.126 0 005.963 0v-12.9h4.45l-.004-.004z" fill="#015B3F"/></g></svg>